<svg xmlns="http://www.w3.org/2000/svg" width="1360" viewBox="0 0 680 720" style="font-family:system-ui,sans-serif;background:#ffffff">
<style>
  .th{font-size:14px;font-weight:500;fill:#1a1a1a}
  .ts{font-size:12px;fill:#6b6860}
  .box-blue{fill:#E6F1FB;stroke:#185FA5;stroke-width:0.5}
  .box-purple{fill:#EEEDFE;stroke:#534AB7;stroke-width:0.5}
  .box-amber{fill:#FAEEDA;stroke:#854F0B;stroke-width:0.5}
  .box-gray{fill:#F1EFE8;stroke:#5F5E5A;stroke-width:0.5}
  .box-blue-inner{fill:#B5D4F4;stroke:#185FA5;stroke-width:0.5}
  .box-purple-inner{fill:#CECBF6;stroke:#534AB7;stroke-width:0.5}
  .box-amber-inner{fill:#FAC775;stroke:#854F0B;stroke-width:0.5}
  .box-gray-inner{fill:#D3D1C7;stroke:#5F5E5A;stroke-width:0.5}
  .th-blue{font-size:14px;font-weight:500;fill:#0C447C}
  .ts-blue{font-size:12px;fill:#185FA5}
  .th-purple{font-size:14px;font-weight:500;fill:#3C3489}
  .ts-purple{font-size:12px;fill:#534AB7}
  .th-amber{font-size:14px;font-weight:500;fill:#633806}
  .ts-amber{font-size:12px;fill:#854F0B}
  .th-gray{font-size:14px;font-weight:500;fill:#444441}
  .ts-gray{font-size:12px;fill:#5F5E5A}
  .th-layer{font-size:14px;font-weight:500;fill:#1a1a1a}
  .ts-layer{font-size:12px;fill:#6b6860}
</style>
<defs>
  <marker id="arrow" viewBox="0 0 10 10" refX="8" refY="5" markerWidth="6" markerHeight="6" orient="auto-start-reverse">
    <path d="M2 1L8 5L2 9" fill="none" stroke="context-stroke" stroke-width="1.5" stroke-linecap="round" stroke-linejoin="round"/>
  </marker>
</defs>

<!-- Title -->
<text class="th" x="340" y="32" text-anchor="middle" dominant-baseline="central" style="font-size:16px;font-weight:600">Contract Paranoia — System Architecture</text>
<text class="ts" x="340" y="52" text-anchor="middle" dominant-baseline="central">Gemini 2.5 Flash Live · Google Search Grounding · FastAPI · React + TypeScript</text>

<!-- CLIENT LAYER -->
<rect x="44" y="72" width="592" height="148" rx="10" class="box-blue"/>
<text class="th-blue" x="64" y="92" dominant-baseline="central">Client layer</text>
<text class="ts-blue" x="64" y="110" dominant-baseline="central">React 18 + TypeScript · Vite · Browser</text>
<rect x="56" y="122" width="104" height="84" rx="6" class="box-blue-inner"/>
<text class="th-blue" x="108" y="148" text-anchor="middle" dominant-baseline="central">Mic input</text>
<text class="ts-blue" x="108" y="166" text-anchor="middle" dominant-baseline="central">AudioWorklet</text>
<text class="ts-blue" x="108" y="182" text-anchor="middle" dominant-baseline="central">16kHz PCM + VAD</text>
<rect x="172" y="122" width="104" height="84" rx="6" class="box-blue-inner"/>
<text class="th-blue" x="224" y="148" text-anchor="middle" dominant-baseline="central">Camera</text>
<text class="ts-blue" x="224" y="166" text-anchor="middle" dominant-baseline="central">MediaDevices</text>
<text class="ts-blue" x="224" y="182" text-anchor="middle" dominant-baseline="central">JPEG · 1 fps</text>
<rect x="288" y="122" width="104" height="84" rx="6" class="box-blue-inner"/>
<text class="th-blue" x="340" y="148" text-anchor="middle" dominant-baseline="central">PDF upload</text>
<text class="ts-blue" x="340" y="166" text-anchor="middle" dominant-baseline="central">pdf.js</text>
<text class="ts-blue" x="340" y="182" text-anchor="middle" dominant-baseline="central">Page rendering</text>
<rect x="404" y="122" width="104" height="84" rx="6" class="box-blue-inner"/>
<text class="th-blue" x="456" y="148" text-anchor="middle" dominant-baseline="central">Chat UI</text>
<text class="ts-blue" x="456" y="166" text-anchor="middle" dominant-baseline="central">Session history</text>
<text class="ts-blue" x="456" y="182" text-anchor="middle" dominant-baseline="central">Clause cards</text>
<rect x="520" y="122" width="104" height="84" rx="6" class="box-blue-inner"/>
<text class="th-blue" x="572" y="148" text-anchor="middle" dominant-baseline="central">Dashboard</text>
<text class="ts-blue" x="572" y="166" text-anchor="middle" dominant-baseline="central">Risk gauge</text>
<text class="ts-blue" x="572" y="182" text-anchor="middle" dominant-baseline="central">Export PDF</text>

<!-- Client → Gateway arrows -->
<line x1="108" y1="206" x2="108" y2="262" stroke="#378ADD" stroke-width="1.2" fill="none" marker-end="url(#arrow)"/>
<line x1="224" y1="206" x2="224" y2="262" stroke="#378ADD" stroke-width="1.2" fill="none" marker-end="url(#arrow)"/>
<line x1="340" y1="206" x2="340" y2="262" stroke="#378ADD" stroke-width="1.2" fill="none" marker-end="url(#arrow)"/>
<line x1="456" y1="206" x2="456" y2="262" stroke="#378ADD" stroke-width="1.2" fill="none" marker-end="url(#arrow)"/>
<line x1="572" y1="206" x2="572" y2="262" stroke="#378ADD" stroke-width="1.2" fill="none" marker-end="url(#arrow)"/>
<path d="M636 270 Q650 220 636 172" fill="none" stroke="#378ADD" stroke-width="0.8" stroke-dasharray="4 3" marker-end="url(#arrow)"/>
<text class="ts-blue" x="654" y="222" dominant-baseline="central">audio</text>
<text class="ts-blue" x="654" y="238" dominant-baseline="central">+ cards</text>

<!-- ORCHESTRATION LAYER -->
<rect x="44" y="250" width="592" height="256" rx="10" class="box-purple"/>
<text class="th-purple" x="64" y="270" dominant-baseline="central">Orchestration layer</text>
<text class="ts-purple" x="64" y="288" dominant-baseline="central">FastAPI · Python · Google ADK · WebSocket</text>
<rect x="58" y="298" width="420" height="56" rx="6" class="box-purple-inner"/>
<text class="th-purple" x="268" y="320" text-anchor="middle" dominant-baseline="central">WebSocket gateway</text>
<text class="ts-purple" x="268" y="338" text-anchor="middle" dominant-baseline="central">Session affinity · LiveRequestQueue · audio + vision multiplexing</text>
<rect x="494" y="298" width="130" height="186" rx="6" class="box-purple-inner"/>
<text class="th-purple" x="559" y="324" text-anchor="middle" dominant-baseline="central">Judge agent</text>
<text class="ts-purple" x="559" y="342" text-anchor="middle" dominant-baseline="central">Quality auditor</text>
<text class="ts-purple" x="559" y="360" text-anchor="middle" dominant-baseline="central">Reasoning trace</text>
<text class="ts-purple" x="559" y="378" text-anchor="middle" dominant-baseline="central">Vertex AI</text>
<line x1="268" y1="354" x2="268" y2="384" stroke="#7F77DD" stroke-width="1.2" fill="none" marker-end="url(#arrow)"/>
<rect x="58" y="378" width="420" height="112" rx="8" fill="none" stroke="#7F77DD" stroke-width="0.5" stroke-dasharray="5 4"/>
<text class="ts-purple" x="268" y="394" text-anchor="middle">ADK multimodal agent framework</text>
<rect x="70" y="402" width="184" height="76" rx="6" class="box-purple-inner"/>
<text class="th-purple" x="162" y="426" text-anchor="middle" dominant-baseline="central">Para — root agent</text>
<text class="ts-purple" x="162" y="444" text-anchor="middle" dominant-baseline="central">LlmAgent · context manager</text>
<text class="ts-purple" x="162" y="460" text-anchor="middle" dominant-baseline="central">flag_clause · score_risk</text>
<line x1="254" y1="440" x2="290" y2="440" stroke="#7F77DD" stroke-width="1.2" fill="none" marker-end="url(#arrow)"/>
<rect x="290" y="402" width="176" height="76" rx="6" class="box-purple-inner"/>
<text class="th-purple" x="378" y="426" text-anchor="middle" dominant-baseline="central">Analyzer sub-agent</text>
<text class="ts-purple" x="378" y="444" text-anchor="middle" dominant-baseline="central">ToolAgent · legal specialist</text>
<text class="ts-purple" x="378" y="460" text-anchor="middle" dominant-baseline="central">Search grounding</text>
<rect x="58" y="506" width="220" height="56" rx="6" class="box-gray-inner"/>
<text class="th-gray" x="168" y="528" text-anchor="middle" dominant-baseline="central">Session store</text>
<text class="ts-gray" x="168" y="546" text-anchor="middle" dominant-baseline="central">Async SQLite · state recovery</text>
<rect x="292" y="506" width="186" height="56" rx="6" class="box-gray-inner"/>
<text class="th-gray" x="385" y="528" text-anchor="middle" dominant-baseline="central">Report engine</text>
<text class="ts-gray" x="385" y="546" text-anchor="middle" dominant-baseline="central">fpdf2 · risk score · citations</text>
<line x1="162" y1="478" x2="162" y2="506" stroke="#888780" stroke-width="0.8" stroke-dasharray="3 3" fill="none" marker-end="url(#arrow)"/>
<line x1="278" y1="534" x2="292" y2="534" stroke="#888780" stroke-width="1" fill="none" marker-end="url(#arrow)"/>
<path d="M278 534 L480 534 L480 392 L494 392" fill="none" stroke="#888780" stroke-width="0.7" stroke-dasharray="3 3" marker-end="url(#arrow)"/>

<!-- Backend → Google arrows -->
<line x1="162" y1="562" x2="162" y2="606" stroke="#BA7517" stroke-width="0.8" stroke-dasharray="3 3" fill="none" marker-end="url(#arrow)"/>
<line x1="268" y1="490" x2="176" y2="606" stroke="#BA7517" stroke-width="1.2" fill="none" marker-end="url(#arrow)"/>
<line x1="378" y1="478" x2="378" y2="606" stroke="#BA7517" stroke-width="0.8" fill="none" marker-end="url(#arrow)"/>
<line x1="559" y1="484" x2="559" y2="606" stroke="#BA7517" stroke-width="0.8" fill="none" marker-end="url(#arrow)"/>

<!-- GOOGLE AI LAYER -->
<rect x="44" y="594" width="592" height="100" rx="10" class="box-amber"/>
<text class="th-amber" x="64" y="614" dominant-baseline="central">Google AI infrastructure</text>
<text class="ts-amber" x="64" y="632" dominant-baseline="central">Managed cloud · always current</text>
<rect x="56" y="644" width="176" height="40" rx="6" class="box-amber-inner"/>
<text class="th-amber" x="144" y="658" text-anchor="middle" dominant-baseline="central">Gemini 2.5 Flash</text>
<text class="ts-amber" x="144" y="674" text-anchor="middle" dominant-baseline="central">Native Audio · BidiGenerateContent</text>
<rect x="248" y="644" width="176" height="40" rx="6" class="box-amber-inner"/>
<text class="th-amber" x="336" y="658" text-anchor="middle" dominant-baseline="central">Google Search</text>
<text class="ts-amber" x="336" y="674" text-anchor="middle" dominant-baseline="central">Legal grounding · 2026 citations</text>
<rect x="440" y="644" width="184" height="40" rx="6" class="box-amber-inner"/>
<text class="th-amber" x="532" y="658" text-anchor="middle" dominant-baseline="central">Vertex AI</text>
<text class="ts-amber" x="532" y="674" text-anchor="middle" dominant-baseline="central">Judge agent · enterprise inference</text>

<!-- Legend -->
<line x1="56" y1="706" x2="96" y2="706" stroke="#6b6860" stroke-width="1.2" fill="none" marker-end="url(#arrow)"/>
<text class="ts" x="102" y="710" dominant-baseline="central">Real-time</text>
<line x1="200" y1="706" x2="240" y2="706" stroke="#a09d98" stroke-width="0.8" stroke-dasharray="3 3" fill="none" marker-end="url(#arrow)"/>
<text class="ts" x="246" y="710" dominant-baseline="central">Async</text>
<line x1="320" y1="706" x2="360" y2="706" stroke="#BA7517" stroke-width="1.2" fill="none" marker-end="url(#arrow)"/>
<text class="ts" x="366" y="710" dominant-baseline="central">Google AI call</text>
</svg>
